<?xml version="1.0" encoding="UTF-8" standalone="no"?>
<svg
   xmlns:dc="http://purl.org/dc/elements/1.1/"
   xmlns:cc="http://creativecommons.org/ns#"
   xmlns:rdf="http://www.w3.org/1999/02/22-rdf-syntax-ns#"
   xmlns:svg="http://www.w3.org/2000/svg"
   xmlns="http://www.w3.org/2000/svg"
   xmlns:xlink="http://www.w3.org/1999/xlink"
   xmlns:sodipodi="http://sodipodi.sourceforge.net/DTD/sodipodi-0.dtd"
   xmlns:inkscape="http://www.inkscape.org/namespaces/inkscape"
   sodipodi:docname="erika.svg"
   inkscape:version="1.0 (4035a4fb49, 2020-05-01)"
   id="svg8"
   version="1.1"
   viewBox="0 0 127.70933 107.91073"
   height="107.91073mm"
   width="127.70933mm">
  <defs
     id="defs2">
    <linearGradient
       inkscape:collect="always"
       id="linearGradient1480">
      <stop
         style="stop-color:#d5e5ff;stop-opacity:1"
         offset="0"
         id="stop1476" />
      <stop
         style="stop-color:#2a2aff;stop-opacity:1"
         offset="1"
         id="stop1478" />
    </linearGradient>
    <linearGradient
       gradientUnits="userSpaceOnUse"
       y2="155.34555"
       x2="179.08366"
       y1="95.53215"
       x1="78.278946"
       id="linearGradient1452"
       xlink:href="#linearGradient1480"
       inkscape:collect="always" />
    <linearGradient
       gradientUnits="userSpaceOnUse"
       y2="767.7793"
       x2="761.11914"
       y1="549.55469"
       x1="548.32812"
       id="linearGradient1460"
       xlink:href="#linearGradient1480"
       inkscape:collect="always" />
  </defs>
  <sodipodi:namedview
     inkscape:window-maximized="1"
     inkscape:window-y="-8"
     inkscape:window-x="-8"
     inkscape:window-height="737"
     inkscape:window-width="1280"
     fit-margin-bottom="0"
     fit-margin-right="0"
     fit-margin-left="0"
     fit-margin-top="0"
     inkscape:snap-global="true"
     inkscape:snap-bbox="false"
     showgrid="false"
     inkscape:document-rotation="0"
     inkscape:current-layer="layer1"
     inkscape:document-units="mm"
     inkscape:cy="200.07228"
     inkscape:cx="170.13323"
     inkscape:zoom="0.35"
     inkscape:pageshadow="2"
     inkscape:pageopacity="0.0"
     borderopacity="1.0"
     bordercolor="#666666"
     pagecolor="#ffffff"
     id="base" />
  <metadata
     id="metadata5">
    <rdf:RDF>
      <cc:Work
         rdf:about="">
        <dc:format>image/svg+xml</dc:format>
        <dc:type
           rdf:resource="http://purl.org/dc/dcmitype/StillImage" />
        <dc:title></dc:title>
      </cc:Work>
    </rdf:RDF>
  </metadata>
  <g
     transform="translate(-60.818917,-95.230877)"
     id="layer1"
     inkscape:groupmode="layer"
     inkscape:label="Layer 1">
    <g
       transform="translate(-12.85119)"
       id="g1486">
      <path
         id="path1418"
         style="font-style:normal;font-variant:normal;font-weight:bold;font-stretch:normal;font-size:163.553px;line-height:1.25;font-family:Corbel;-inkscape-font-specification:'Corbel, Bold';font-variant-ligatures:normal;font-variant-caps:normal;font-variant-numeric:normal;font-variant-east-asian:normal;fill:url(#linearGradient1460);fill-opacity:1;stroke-width:3.21955"
         d="m 666.85156,591.13281 -34.40625,-55.9082 c -3.45696,1.90414 -7.18489,3.68994 -11.375,5.27539 -8.04885,3.01831 -18.01071,5.33163 -29.88281,6.94141 -11.67085,1.40855 -25.95675,2.11328 -42.85938,2.11328 l 14.18555,61.875 109.86719,156.34961 h 88.73828 L 640.99023,601.77148 v -1.20703 c 9.35201,-2.71324 17.91699,-5.8902 25.86133,-9.43164 z"
         transform="scale(0.26458333)" />
      <path
         id="path1443"
         style="font-style:normal;font-variant:normal;font-weight:bold;font-stretch:normal;font-size:163.553px;line-height:1.25;font-family:Corbel;-inkscape-font-specification:'Corbel, Bold';font-variant-ligatures:normal;font-variant-caps:normal;font-variant-numeric:normal;font-variant-east-asian:normal;fill:url(#linearGradient1452);fill-opacity:1;stroke-width:0.851839"
         d="m 78.278943,95.230877 v 0.301276 l 19.565731,16.069817 h 54.192056 c 4.15271,0 7.63966,0.2128 10.46138,0.63872 2.82171,0.37268 5.16459,0.98526 7.02799,1.8371 2.87495,1.27776 4.89812,3.0344 6.0694,5.27048 1.22451,2.18283 1.83658,4.71166 1.83658,7.58661 0,3.35412 -0.77219,6.33592 -2.31614,8.94468 -1.07124,1.8364 -2.79985,3.38705 -5.1356,4.67361 l 9.10332,14.79238 c 5.22471,-2.32907 9.32083,-5.32192 12.24421,-9.00462 4.15271,-5.21751 6.22908,-11.553 6.22908,-19.00659 0,-7.13414 -1.70397,-13.04352 -5.11132,-17.72863 -3.40736,-4.73835 -8.25221,-8.30588 -14.53451,-10.70167 -3.30087,-1.224518 -7.26714,-2.129441 -11.89902,-2.71508 -4.63187,-0.638879 -9.63632,-0.958083 -15.01355,-0.958083 z" />
      <path
         id="rect1421"
         style="fill:#5555ff;fill-opacity:0.911765;stroke-width:1"
         d="m 90.589606,146.46135 h 43.905534 l 3.75326,16.37109 -47.658794,1.0917 z"
         sodipodi:nodetypes="ccccc" />
      <path
         sodipodi:nodetypes="ccccc"
         d="m 84.253443,185.67881 h 71.422207 l 11.64178,17.46279 H 73.670107 Z"
         style="fill:#5555ff;fill-opacity:0.911765;stroke-width:1"
         id="rect1421-9" />
    </g>
  </g>
</svg>
